<?xml version="1.0" encoding="utf-8"?>
<!-- Generator: Adobe Illustrator 19.0.0, SVG Export Plug-In . SVG Version: 6.00 Build 0)  -->
<svg version="1.1" id="Camada_1" xmlns="http://www.w3.org/2000/svg" xmlns:xlink="http://www.w3.org/1999/xlink" x="0px" y="0px"
	 viewBox="0 0 1600 671" style="enable-background:new 0 0 1600 671;" xml:space="preserve">
<style type="text/css">
	.st0{fill:#FDFEFE;}
	.st1{fill:#0188D3;}
	.st2{fill:#281171;}
</style>
<g id="XMLID_71_">
	<polygon id="XMLID_69_" class="st0" points="466.6,93.7 416.7,513.4 736.8,503.2 787,100.6 	"/>
	<path id="XMLID_155_" class="st1" d="M771.5,187.9c2-15.5,8-64.7,9-73.8c1.9-0.6,9-0.3,11-0.3c65,0.1,129.9,0.1,194.9,0.1
		c16,0,32-0.5,48,0.2c33.6,1.5,64.6,11.1,90.1,33.8c23,20.5,30.9,49,19.1,82.6c-9.2,26.4-29.2,43.2-53.3,55.7
		c-9.5,4.9-19.3,8.8-29.7,11.2c-1.8,0.4-3.4,1.2-3.3,3.1c0.1,2,2.3,1.5,3.5,1.8c8.9,2.1,17.8,4.1,26.4,7.4
		c22.2,8.7,31.4,26.3,33.6,48.6c2.8,28.4,0.6,57,2.1,85.4c0.1,1.4,0.2,2.9,0.3,5.6c3.5-15.7,4.4-30.4,6.3-45.1
		c2.3-17.7,4.1-35.4,6.1-53.1c3.1-27,6.2-54,9.4-81c2.8-23.9,5.9-47.8,8.6-71.7c2.7-23.5,5.4-47,7.8-70.6c1.4-14,1.1-14.1,15.4-14.1
		c49.5,0,99,0,148.5-0.1c3.9,0,6.1,0.9,8.1,4.6c29.1,54.3,58.5,108.5,87.8,162.7c12.1,22.4,24.2,44.9,36.4,67.3
		c0.8,1.6,1.3,3.4,3.4,4.5c2.1-7.2,2.2-14.6,3.1-21.8c4.9-40.5,9.6-80.9,14.3-121.4c3.4-29.7,6.8-59.5,10-89.2
		c0.5-4.8,1.7-6.8,7.2-6.8c32.9,0.3,65.9,0.3,98.8,0c4.9,0,5.9,1.5,5.4,6c-2.9,23.5-5.7,47-8.5,70.5c-2.9,24.1-5.8,48.1-8.6,72.2
		c-3.5,29.9-6.8,59.8-10.3,89.7c-2.4,20.6-5.1,41.2-7.5,61.8c-2.4,20.6-4.7,41.2-6.8,61.9c-0.4,4.1-1.7,5.6-6.1,5.5
		c-50.4-0.2-100.8-0.2-151.3-0.1c-3.6,0-4.7-2-6.1-4.5c-16.6-29.8-33.1-59.7-49.7-89.5c-27.3-49.1-54.5-98.1-81.8-147.1
		c-0.8-1.4-1.7-2.7-3.3-5.2c-1.2,9.6-2.2,17.8-3.2,26.1c-4,34.3-8.1,68.5-12.1,102.8c-3.4,29-6.6,58-10,87c-1,8.6-2.2,17.1-3,25.7
		c-0.3,3.4-1.5,4.6-5.1,4.6c-74.9-0.1-149.8-0.1-224.7,0c-4.9,0-6.1-1.3-5.9-6.2c1.3-32.4,2.4-64.7,3.1-97.1
		c0.3-16.1-8.2-27.7-21.4-36c-1.6-1-3.6-1.6-5.7-1.6c-30.7-0.5-61.5-1-92.2-1.8c-5.7-0.2-7.6,1.2-8.2,7.3c-2.6,26-5.9,51.8-9,77.7
		c-2,16.8-4.1,33.5-5.7,50.3c-0.5,5.7-2.5,7.5-8.4,7.5c-34-0.3-109.4,0.6-109.4,0.6S772.1,196.2,771.5,187.9z M928.9,270.7
		c14.7-1,31.9,1.7,48.9-2c16.5-3.6,31.1-10.2,39.5-25.8c8.9-16.6,9.1-30-2.9-42.1c-10.7-10.8-24.4-17.5-39.7-17.9
		c-26.7-0.8-53.4-0.2-80-0.4c-2.9,0-3.9,1.1-4.2,3.7c-0.6,6-1.4,12.1-2.1,18.1c-2.3,20.1-4.5,40.2-7.1,60.2c-0.7,5.4,1.1,6.4,6,6.3
		C900.4,270.5,913.5,270.7,928.9,270.7z"/>
	<path id="XMLID_66_" class="st1" d="M464.8,114.1c-2.3,20.3-4.6,40.5-6.9,60.8c-2.4,20.6-4.9,41.2-7.3,61.7
		c-3.2,27.5-6.6,55.1-9.6,82.6c-2.3,20.7-6.6,40.9-13.7,60.4c-10.3,28.6-26.2,53.2-51.3,71.1c-18.3,13.2-38.7,21.7-60.3,27.8
		c-43.8,12.4-88.6,12.7-133.5,10.5c-32.7-1.6-64.9-6.9-94.9-21.2c-32.3-15.5-50.8-41.1-57.8-76c-5.2-26.4-4-52.6-1-79
		c3.4-29.7,6.7-59.5,10.1-89.3c3.8-32.6,7.7-65.3,11.8-97.9c1.5-11.9,1.6-11.9,13.7-11.9c33.3,0,66.6,0.1,99.9-0.1
		c5.1,0,6,1.2,5.4,6.2c-4.1,33.7-7.7,67.5-11.7,101.3c-3.8,32.8-7.9,65.6-11.7,98.5c-1.8,15.8-1.8,31.6,2.4,47.1
		c7.5,28.2,25.4,46.2,54.3,50.9c26.2,4.3,51.7,0.8,74.2-14.6c20.1-13.8,32.8-33,39.9-56.3c5.4-17.3,6.4-35.3,8.6-53.1
		c3.1-24.2,5.9-48.5,8.7-72.8c3.1-26.6,6.1-53.3,9.1-79.9c0.8-7.5,1.8-15,2.5-22.5c0.3-3.6,1.6-4.8,5.4-4.8
		c36.1,0.2,72.1,0.1,108.2,0.1c2.1,0,4.6,0.9,5-2.5C464.6,112.3,464.7,113.2,464.8,114.1z"/>
	<path id="XMLID_145_" class="st2" d="M771.5,187.9c0.6,8.3-39.3,357.1-43.3,388.7c-0.5,3.9,0.9,9.4-2.3,11.3
		c-2.9,1.8-7.8,0.6-11.9,0.6c-99.9,0-199.8,0-299.7,0.1c-5.4,0-6.5-1-5.8-6.5c4.1-32.1,7.7-64.2,11.4-96.3c0.4-3.5,1.5-4.8,5.4-4.7
		c35.5,0.2,71,0,106.5,0.2c4.7,0,5.7-1.6,6.2-5.8c4.5-40,9.2-79.9,13.9-119.9c0.6-5.4-1-12.7,2.8-15.6c3.4-2.6,10.3-0.7,15.6-0.7
		c53.7,0,107.4-0.1,161.2,0.1c4.7,0,6.6-1,7.1-5.9c2.3-22.1,5-44.2,7.6-66.3c0.3-2.4-0.2-3.4-2.8-3.2c-1.5,0.1-2.9,0-4.4,0
		c-57,0-114.1-0.1-171.1,0.1c-4.7,0-5.6-1-5-5.7c2.8-21.5,5.2-43,7.5-64.6c0.5-4.7,2-5.9,6.7-5.9c61.8,0.2,123.6,0.1,185.5,0.1
		C765.6,188,768.5,188,771.5,187.9z M518.6,569.3c3.6-0.2,7.8,0.3,12-0.9c13.8-4.3,21.8-20,18.4-36.2c-2.4-11.5-9.1-17.1-20.7-17.3
		c-2.8,0-5.5,0.3-8.3-0.1c-3.6-0.4-4.7,1.2-5.2,4.5c-2,12.9-4,25.8-6.2,38.6C506.6,569.3,506.5,569.3,518.6,569.3z M614.3,542.5
		c3.9,8.2,7.5,14.8,10.1,21.7c2.1,5.7,5.5,5.7,10.4,4.5c-2.5-5.5-4.8-10.7-7.4-15.8c-1.4-2.8-1.2-3.8,2-4.9c8.5-3,12.6-11.2,10.9-21
		c-1.2-7.4-7.2-11.9-16-12.3c-3.1-0.1-6.3,0.1-9.4-0.1c-2.7-0.2-3.8,0.7-4.2,3.5c-2.4,15.6-5.1,31.2-7.6,46.8
		c-0.2,1.5-2.2,4.3,1.9,4.2c2.5,0,5,0.7,5.5-3.3C611.4,558.7,612.8,551.4,614.3,542.5z M643.8,569.2c4.3,0,8.5,1.5,9.7-3.7
		c2.3-10.5,9.1-13.4,18.9-11.6c0.4,0.1,0.7,0,1.1,0c2.3-0.3,3.3,0.7,3.6,3c0.5,3.5,1.1,6.9,1.8,10.3c0.7,3.9,3.8,1.9,5.8,2
		c3,0.2,1.7-2,1.5-3.5c-2.7-15.6-5.4-31.1-8.1-46.7c-0.3-1.8,0.3-4.5-3-4.3c-2.7,0.2-5.6-0.9-7.4,3
		C660.1,534.7,652,551.6,643.8,569.2z M572.8,569.3c3.1,0,6.3,0,9.4,0c2.9,0,4.3-1.4,4.1-4.5c-0.2-2.8-0.8-4.5-4.1-3.9
		c-1.4,0.2-2.9,0.1-4.4,0.1c-8.5,0-8,0.1-7.2-8.4c0.6-5.6,2.6-7.8,8.2-6.9c2,0.3,4.1-0.2,6.1,0.1c4.6,0.8,4.5-2.5,4.9-5.4
		c0.6-4.2-2.6-2.4-4.4-2.7c-1.2-0.2-2.6,0-3.9,0c-8.3,0-8.1,0-7.1-8.4c0.6-4.8,2.1-7.3,7.5-6.4c2.7,0.5,5.5,0.1,8.3,0
		c4.5-0.2,2.9-4.1,3.4-6.3c0.6-2.8-2.1-1.8-3.4-1.8c-5.3-0.1-10.7,0.2-16-0.1c-3.4-0.2-4.8,0.8-5.3,4.3c-1.9,12.7-4.2,25.4-6.2,38.1
		C560.4,569.2,560.5,569.2,572.8,569.3z M476.5,569.3c3.6,0,6.6-0.1,9.5,0c5,0.3,3.5-3.9,4-6.2c0.7-3.3-2.3-1.9-3.7-2
		c-2.9-0.2-5.9-0.3-8.8,0c-3.4,0.3-3.9-1-3.3-4.2c1.9-11.1,1.8-11.1,13.2-11.1c1.1,0,2.2,0,3.3,0c1.7,0.1,2.3-0.6,2.9-2.4
		c1.6-5.1-0.5-5.8-5.1-5.7c-11.5,0.2-11.4,0-9.4-11.2c0.5-2.9,1.8-3.5,4.4-3.4c3.5,0.2,7,0,10.5,0.1c4.7,0.1,3-3.9,3.6-6
		c0.9-3.4-2.1-2.1-3.5-2.2c-5.1-0.1-10.3,0.2-15.5-0.2c-4-0.3-5.4,1.1-6,5c-1.8,12.4-3.9,24.7-5.8,37.1c-0.6,4-2.9,9.1-1.3,11.6
		C467.6,571.1,473.2,568.8,476.5,569.3z M443.5,545.7c2,0,4-0.1,6.1,0c2.1,0.1,2.6-0.8,3.1-2.8c1.5-5.4-1.4-5.4-5.4-5.3
		c-11.3,0.2-11.2,0.1-9.1-11.1c0.5-2.7,1.4-3.8,4.2-3.6c3.7,0.2,7.4,0.1,11,0c4.5-0.2,2.8-4.1,3.4-6.3c0.7-2.9-2.1-1.8-3.4-1.8
		c-5.5-0.1-11,0.1-16.5-0.1c-3.3-0.2-4.5,1-5,4.2c-2.4,15.4-5,30.8-7.5,46.2c-0.3,1.7-1.6,4.2,2.1,4.2c2.6,0,5.1,0.6,5.4-3.5
		c0.3-4,1.3-8,2-11.9C435.3,545.7,435.3,545.7,443.5,545.7z M709.2,569.2c2.2,0,4.5-0.4,6.6,0.1c5.4,1.1,5.7-2.7,5.8-6.1
		c0.1-4.3-3.4-1.7-5.2-2.2c-1.9-0.5-4-0.2-6-0.1c-3,0.2-3.7-0.7-3.1-3.8c2.3-12.7,3.9-25.4,6.4-38.1c0.8-4.2-0.6-4.4-4-4.4
		c-3.9-0.1-3.3,2.8-3.7,4.8c-2.2,12.7-4.1,25.4-6.3,38.1C697.6,569.3,697.6,569.2,709.2,569.2z"/>
	<path id="XMLID_57_" class="st2" d="M464.8,114.1c-0.1-0.9-0.2-1.8-0.3-2.7c1-8.4,2-16.8,2.9-25.2c0.3-3.2,1.2-4.6,5-4.6
		c103.9,0.1,207.9,0.1,311.8,0c4.9,0,5.6,1.2,4.7,5.9c-1.5,7.9-2.1,16-3.1,24c-0.6,3.3-3.4,2-5.3,2.6c-2.4-0.1-4.8-0.2-7.2-0.2
		c-100.6,0-201.3,0-301.9,0C469.2,113.9,467,114,464.8,114.1z"/>
	<path id="XMLID_140_" class="st2" d="M286.4,568.7c8.3-17.7,16.3-34.8,24.3-51.9c1.6-3.5,4.8-1.7,7.3-2c2.5-0.2,2.1,1.8,2.4,3.4
		c2.5,14.7,5.1,29.3,7.6,43.9c0.3,1.8,0.8,3.5,2.1,5.2c2.6-15.8,5.4-31.6,7.8-47.5c0.6-4,1.8-6,6.1-5.2c1.6,0.3,3.3,0.1,5,0.1
		c15.3,0,22.5,6.6,23.8,21.9c1.3,15.1-7,28.6-19.8,31.7c-6.8,1.6-13.9,0.7-20.9,0.6c-10.3-0.2-10.4-0.4-12.2-10.6
		c-0.6-3.5-1.7-5.4-5.5-4.7c-0.5,0.1-1.1,0.1-1.7,0c-8.5-1.6-13.6,1.5-16.1,10.1C294.7,569.7,294,569.5,286.4,568.7z M345,561.3
		c13.4-0.2,20.7-8.8,19.9-23.4c-0.6-11.6-5.9-16.2-17.2-15.5c-2.3,0.1-3.1,0.8-3.4,3.1c-1.4,9.6-3,19.2-4.7,28.8
		C338.3,561.5,338.2,561.4,345,561.3z M314.7,526.5c-0.3,0-0.7-0.1-1-0.1c-2.3,5-4.6,9.9-6.8,14.9c-0.7,1.6-2.6,3.6-0.7,4.9
		c3,2,6.2-0.5,9.4-0.6c2.5-0.1,1.5-2.1,1.4-3.3C316.3,537,315.5,531.7,314.7,526.5z"/>
	<path id="XMLID_136_" class="st2" d="M1042.4,544.6c-1.1,6.9-2.5,13.7-3.3,20.6c-0.5,3.7-2.3,4.2-5.5,4c-4.4-0.3-2.2-3.1-1.9-4.7
		c2.4-15.2,5.1-30.4,7.4-45.7c0.5-3.4,1.9-4.3,5-4.1c2.4,0.2,4.8,0,7.2,0.1c10,0.1,15.9,4.1,17.4,11.8c2,10.1-2.2,18.1-11.4,21.7
		c-1.6,0.6-3.4,0.6-2.1,3.1c2.5,5.1,4.9,10.2,7.6,16.2c5.9-12.5,11.5-24.2,17-36c2-4.3,4.4-8.5,5.9-13c1.4-4.4,4.5-3.9,7.8-3.8
		c4,0.1,2.7,3.3,3.1,5.3c2.7,15,5.3,30,7.9,45.1c0.2,1.4,2.1,4-1.5,4c-2.2,0-5.5,1.7-5.9-2.7c0-0.2-0.1-0.4-0.1-0.5
		c-0.9-3.9,0.2-9.1-2.8-11.4c-3.2-2.4-8.2-0.4-12.4-0.8c-3.5-0.4-5.6,1-6.5,4.3c-0.1,0.5-0.5,1-0.7,1.5c-4.5,10.1-4.5,9.9-15.6,9.8
		c-3.2,0-4.4-1.3-5.6-4c-3.1-7-6.5-13.9-9.7-20.8C1043.3,544.6,1042.9,544.6,1042.4,544.6z M1047.9,541.6c2.2-0.1,3.7-0.1,5.2-0.3
		c5-0.7,8.2-4.7,8-10.1c-0.2-5.4-3.1-7.6-8.8-8.5c-6.5-1-7.1,3-7.6,7.6c-0.2,1.8-0.5,3.6-0.9,5.4
		C1043,539.6,1042.3,543.5,1047.9,541.6z M1090.6,524.6c-3.3,7.3-6,13.3-8.7,19.3c-1,2.1-0.1,3,2.2,2.9c1.6-0.1,3.3-0.2,4.9,0
		c3.8,0.5,4.9-1,4.2-4.7C1092.2,536.9,1091.6,531.6,1090.6,524.6z"/>
	<path id="XMLID_50_" class="st2" d="M1015.9,542.2c2.4,0,4.8,0,7.2,0c7.9,0,7.9,0,5.8,7.7c-4.4,16.7-20.9,25.2-34.8,18.1
		c-4.3-2.2-7.2-5.6-9.1-9.9c-6-13.6-1.5-31.1,10.2-40.3c11.5-8.9,29.6-3.2,33.5,10.8c0.4,1.3,2,3.6-0.4,4.2
		c-2.1,0.6-5.6,1.5-6.5-1.1c-2.8-8.2-8.5-11.4-16.6-10c-8.7,1.6-12.9,8.2-14.4,16.2c-1.4,7.6-1.7,15.4,4.9,21.5
		c4,3.7,8.7,3.8,13.4,2.4c5.2-1.5,8.8-5.2,11-10.1c1-2.3-0.9-2.2-2.4-2.2c-4.6,0-9.2,0-13.8-0.1c-1.4,0-3.9,0.8-3.3-2
		c0.5-2-0.8-5.6,3.6-5.3C1008.2,542.4,1012.1,542.2,1015.9,542.2z"/>
	<path id="XMLID_49_" class="st2" d="M1392.9,554.4c1.4-8.2,2.8-16.5,4.2-24.7c0.6-3.8,1.7-7.6,1.9-11.4c0.2-3.6,2-3.5,4.6-3.6
		c2.9-0.1,3.4,0.8,2.9,3.5c-2.8,15.7-5.4,31.5-8,47.2c-0.3,2-0.3,4.3-3.3,3.7c-2.7-0.5-6.2,1.9-7.5-3c-2.8-10.4-6.1-20.7-9.3-31.1
		c-0.6-1.9-1.3-3.7-2.2-6.5c-2.4,4.9-2.4,9.3-3.2,13.4c-1.4,7.8-2.8,15.6-3.7,23.4c-0.4,4.2-2.8,4-5.7,3.8c-4.4-0.3-1.9-3.4-1.7-4.9
		c2.3-15.2,5-30.4,7.5-45.6c0.4-2.2,0.5-4.6,3.8-3.9c2.8,0.6,6.4-1.6,7.8,3.5c3.3,12.1,7.2,24.1,10.8,36.1
		C1392.2,554.4,1392.6,554.4,1392.9,554.4z"/>
	<path id="XMLID_48_" class="st2" d="M1138.6,554.3c1.9-11.4,3.7-22.8,5.6-34.2c0.3-1.8-0.2-4.5,2.2-5.1c1.7-0.5,3.8-0.4,5.3,0.3
		c1.5,0.8,0.2,2.7-0.1,4c-2.5,15.4-5.1,30.8-7.6,46.2c-0.3,2.2-0.4,4.2-3.4,3.6c-2.7-0.5-6.2,1.8-7.5-3.1c-2.7-10.3-5.9-20.4-9-30.6
		c-0.7-2.4-0.8-5.1-3.3-7.4c-1.9,12-3.7,23.5-5.6,35c-0.3,2-0.4,4.6-1.6,5.6c-1.3,1-4,0.7-5.8,0.2c-2.1-0.6-0.6-2.6-0.4-3.8
		c2.5-15.6,5.3-31.1,7.8-46.7c0.4-2.8,1.3-4.1,4.1-3.6c2.6,0.5,6.1-1.8,7.4,3.2c2.9,11,6.4,21.8,9.7,32.7c0.4,1.2,0.8,2.4,1.2,3.6
		C1137.9,554.3,1138.3,554.3,1138.6,554.3z"/>
	<path id="XMLID_47_" class="st2" d="M67.4,554.6c1.9-11.8,3.7-23.4,5.8-35c0.3-1.8-0.5-4.7,3-4.9c3.2-0.2,5.5-0.6,4.5,4.4
		c-2.9,15.3-5.3,30.8-7.7,46.2c-0.4,2.4-0.6,4.4-3.8,3.9c-2.7-0.4-6.1,1.4-7.3-3.4c-3-11.3-6.6-22.5-9.9-33.8
		c-0.4-1.2-0.9-2.3-2.3-3.5c-1.9,11.6-3.7,23.2-5.7,34.8c-0.3,2,0,4.7-2.3,5.7c-1.5,0.6-3.8,0.5-5.3-0.2c-1.7-0.8-0.2-2.7,0-4
		c2.5-15.4,5.1-30.8,7.6-46.2c0.3-2,0.1-4.4,3.2-3.8c2.8,0.6,6.7-2.1,8.1,3.1c3,10.8,6.4,21.4,9.6,32.1
		C65.4,551.6,65.5,553.3,67.4,554.6z"/>
	<path id="XMLID_129_" class="st2" d="M956.1,537.6c0,16.7-7.9,28.7-20,31.9c-12,3.3-23.1-2.5-26.2-14.5
		c-3.4-13.2-1.6-25.7,8.9-35.4c6.5-6,14.6-7.8,23.1-4.9c7.8,2.7,11.9,8.8,13.3,16.8C955.8,534.1,956,536.7,956.1,537.6z
		 M916.1,545.2c0.1,8.6,3.7,15,9.7,16.9c6.4,2,14.7-0.9,18.3-6.8c4.1-6.8,5.7-14.2,3.8-22.1c-2.7-11.2-13.4-15.4-22.9-8.8
		C917.9,529.4,916.3,537.1,916.1,545.2z"/>
	<path id="XMLID_126_" class="st2" d="M787.1,541.5c0.6-9.8,4.5-20.7,17.1-26.1c13.1-5.6,26.2,1.3,29.4,15.1
		c2.1,9.3,1.1,18.3-3.5,26.7c-5.6,10.5-17.1,15.4-28,12.4C792.4,566.9,786.5,557.1,787.1,541.5z M827.1,540.8
		c0.2-10.6-4.2-17.8-11.1-19.2c-7.9-1.6-15.9,3-19.2,11.3c-2.3,5.7-3,11.6-1.7,17.8c2.5,11.9,14.9,16.1,24.1,8.2
		C825.1,553.8,826.4,546.9,827.1,540.8z"/>
	<path id="XMLID_123_" class="st2" d="M1407.9,540.5c0.3-7.5,3.5-17.8,14.6-23.9c14.1-7.7,28.9-0.7,32,14.9c1.8,9,0.6,17.6-3.7,25.6
		c-5.6,10.4-17.2,15.4-28,12.5C1413.5,567.1,1407.8,557.7,1407.9,540.5z M1415.4,544.1c-0.3,10.2,4,17.2,11.2,18.4
		c8.9,1.5,16.4-3.5,19.6-13c1.8-5.3,2.3-10.7,1-16.3c-2.7-11.4-13.8-15.5-23.3-8.5C1417.4,529.5,1415.6,536.5,1415.4,544.1z"/>
	<path id="XMLID_120_" class="st2" d="M1338.6,539.9c0.2,7.4-1.9,14.7-6.8,21c-6.2,8-16.1,11.3-25.6,8.7c-8.1-2.3-14.2-10.5-15-20.4
		c-0.5-6.3,0.2-12.4,2.6-18.4c5.1-12.7,16.3-19.1,28.8-16.6C1332.6,516.2,1338.7,525.8,1338.6,539.9z M1331.1,540.4
		c0-11.3-3.6-17.1-11.2-18.7c-7.4-1.6-15.1,2.6-18.7,10.4c-2.7,6-3.4,12.3-1.9,18.8c1.4,6,4.3,10.5,10.9,11.5
		c7.1,1.1,13.5-1.8,16.9-7.7C1329.9,550,1331.4,545,1331.1,540.4z"/>
	<path id="XMLID_117_" class="st2" d="M261.1,569.1c-12.8,0-12.8,0-10.9-11.4c2.1-12.7,4.2-25.3,6.2-38c0.6-3.6,1.8-5.8,5.9-4.9
		c0.5,0.1,1.1,0,1.7,0c23.7,0,34.7,17.6,24.3,39.4C282.5,566.3,272.4,570.3,261.1,569.1z M262.6,561.3c15.9,0.6,21.6-11.8,21.1-23.6
		c-0.5-10.8-5.7-15.4-16.5-15.2c-2.8,0-4.2,0.6-4.6,3.8c-1.3,9.6-2.6,19.2-4.6,28.7C256.9,560.2,257.4,562.8,262.6,561.3z"/>
	<path id="XMLID_114_" class="st2" d="M753,569.2c-12.5,0-12.4,0-10.4-11.7c2.2-12.6,4.3-25.3,6.2-38c0.5-3.7,1.9-5.2,5.6-4.7
		c2,0.3,4,0,6.1,0c14.9,0.1,22.2,7,23.2,21.9c1,15.3-6.3,27.5-18.7,31.5C760.8,569.6,756.6,568.9,753,569.2z M756.2,561.3
		c12.9-0.3,20.8-9.5,20-23.5c-0.6-11.1-5.8-15.7-16.9-15.4c-3.1,0.1-3.9,1.2-4.3,4.1c-1.3,9.4-3,18.8-4.6,28.2
		C749.4,561.5,749.4,561.5,756.2,561.3z"/>
	<path id="XMLID_111_" class="st2" d="M1161.7,569.1c-2.9-0.5-8,1.9-10.1-0.9c-1.5-2.1,0.7-6.9,1.3-10.6c2-12.5,4-25,5.9-37.6
		c0.6-3.6,1.5-6.2,6.1-5.3c2.3,0.4,4.8,0,7.2,0.1c12.2,0.2,19.6,6,21.2,18c1.7,13.1-0.7,24.9-12.7,32.9
		C1175,569.4,1168.8,569.3,1161.7,569.1z M1165,561.4c12.3-0.3,18.7-5,20.6-15.9c2.2-12.8-0.8-23.8-15.8-23c-3,0.2-4.2,1.1-4.7,3.9
		c-1.4,9.6-2.7,19.2-4.7,28.7C1159.4,560.2,1159.9,562.8,1165,561.4z"/>
	<path id="XMLID_108_" class="st2" d="M1258.2,569.1c-12.9,0-13,0-11.3-10.9c2.1-13.4,4.5-26.8,6.5-40.2c0.4-2.7,1.5-3.3,3.9-3.2
		c3.1,0.1,6.2,0,9.4,0.1c12.6,0.2,20.4,7.9,21,20.5c0.5,11.9-1.7,22.6-12.4,30C1269.4,569.4,1262.9,569.2,1258.2,569.1z
		 M1259.2,561.3c4.1-0.1,7.4,0.1,10.4-1.6c8.8-4.9,11.1-13.1,10.7-22.3c-0.5-10.7-5.3-14.9-16-15c-3.6,0-4.7,1.4-5.2,4.5
		c-1.4,9.4-2.9,18.8-4.6,28.1C1253.7,559.7,1253.7,563.1,1259.2,561.3z"/>
	<path id="XMLID_105_" class="st2" d="M196,568.5c-5.7,2.1-8.6,0.1-10.6-5.2c-2.5-6.4-5.8-12.6-9.3-19.9c-2.2,7.8-2.9,14.6-4.1,21.4
		c-0.3,1.8,0.3,4.6-3.4,4.6c-3.4,0-5-0.2-4.2-4.4c2.8-15.7,5.3-31.5,7.9-47.3c0.2-1.1,0.1-2.6,1.4-2.6c7.2,0.1,14.8-1.8,21.5,2.5
		c6.1,3.9,7.3,9.9,6.5,16.4c-0.8,6.6-3.9,12-10.6,14c-3.6,1-3.9,2.2-2.3,5.2C191.4,558.1,193.6,563.3,196,568.5z M181.1,541.4
		c1.6,0,3.1,0.1,4.5,0c5.3-0.6,8.7-4.7,8.5-10.4c-0.2-5.1-3.4-7.5-9-8.4c-6.8-1-6.9,3.2-7.4,7.8c-0.2,2-0.5,4-1,6
		C175.7,540.4,176.1,543,181.1,541.4z"/>
	<path id="XMLID_102_" class="st2" d="M1467.8,542.6c-1.4,8.4-2.8,15.3-3.6,22.4c-0.5,4-2.7,4.6-5.9,4.2c-4.3-0.5-1.7-3.6-1.4-5
		c2.3-15.4,5-30.8,7.5-46.1c0.2-1.2-0.1-3,1.6-3c7.2,0.1,14.8-1.8,21.5,2.5c6.1,3.9,7.1,10,6.4,16.4c-0.7,6.2-3.6,11.7-9.7,13.5
		c-5.3,1.6-4.7,3.5-2.6,7.1c1.7,3,3.2,6.2,4.4,9.5c0.6,1.5,3.3,3.9,0.5,4.8c-2.3,0.8-5.8,1.6-7.5-2.3c-2.5-5.9-5.4-11.7-8.1-17.5
		C1470.1,547.3,1469.2,545.6,1467.8,542.6z M1473,541.6c10.4-0.3,15.3-5.8,12.5-13.6c-2-5.6-6.9-5-11.5-5.2
		c-4.6-0.2-3.2,3.5-3.9,5.9c-0.6,2.3-0.8,4.7-1.3,7C1468.1,539.7,1467,543.8,1473,541.6z"/>
	<path id="XMLID_99_" class="st2" d="M885.8,568.7c-5.7,1.4-8.8,0-10.7-5.3c-2.4-6.6-5.9-12.8-9.9-19.1c-1.3,7.3-2.8,14.6-3.7,21.9
		c-0.5,4.6-3.6,2.7-5.7,2.8c-3.5,0.2-1.8-2.4-1.6-3.8c2.4-15,5-30.1,7.3-45.1c0.6-4.3,2.3-6.1,6.6-5.4c2,0.3,4,0,6.1,0.1
		c9.7,0.1,15.4,4.1,17,11.7c2,10-1.8,18.2-10.6,21.6c-3.1,1.2-3.4,2.3-2.1,5C881,558,883.3,563.2,885.8,568.7z M869.8,541.7
		c2.9-0.2,4.9-0.1,6.9-0.5c4.6-1,7.4-5.6,6.9-11c-0.5-4.9-3.4-6.9-9.1-7.5c-5.7-0.7-6.8,2.3-7,6.9c-0.1,2.4-0.7,4.7-1.2,7
		C865.4,540.4,865.1,543.6,869.8,541.7z"/>
	<path id="XMLID_24_" class="st2" d="M0,551.9c1.6-10,3.7-22.5,5.7-35c0.6-3.6,3.5-1.7,5.3-2c2.8-0.4,2.1,1.7,1.9,3.3
		c-1.6,9.4-3.2,18.8-4.7,28.2c-0.4,2.5-0.7,5.1-0.8,7.7c-0.2,3.5,0.3,6.6,4.6,7.6c4.4,1,7.6-0.4,9.3-4.7c2.4-6.2,2.9-12.9,4.1-19.3
		c1.2-6.5,2.5-13,3.2-19.6c0.5-4.3,3.2-3.2,5.6-3.1c3.7,0,2,2.8,1.8,4.4c-2.1,12.3-3.9,24.7-6.5,36.9c-2.1,10-7.4,14.3-16.1,14.1
		C4.5,570.1-0.1,564.6,0,551.9z"/>
	<path id="XMLID_23_" class="st2" d="M216.8,570.3c-8.4,0-15.3-8.8-13.8-17c0.6-3,2.7-1.7,4.3-2c2.6-0.4,3.5,0.7,3.5,3.4
		c0,4.4,2.1,7.5,7,7.4c4.2-0.1,7-4.1,6.8-9c-0.1-3.3-2-5.4-4.4-7.2c-2.5-1.9-5.2-3.4-7.6-5.4c-6.1-5.1-6.7-15.4-1.3-21.9
		c4.3-5.4,12.7-6.4,18.4-2.3c4.1,2.9,4.6,7.3,4.9,11.7c0.2,2.1-1.5,2.3-3,2c-1.7-0.3-4.4,1.3-4.7-2.1c-0.3-3.1-0.9-5.9-4.7-6.3
		c-3-0.3-4.8,1.3-6,3.8c-1.7,3.6-0.5,6.4,2.3,8.8c2.2,1.9,4.6,3.6,7,5.2c6.1,4.4,8.6,12.5,6.2,20.1
		C229.4,566.3,223.9,570.3,216.8,570.3z"/>
	<path id="XMLID_22_" class="st2" d="M164.9,514.8c0.6,6.8-2.1,9.4-8.2,8.1c-0.4-0.1-0.7,0-1.1,0c-2.8,0.4-7-1.5-8.3,1.1
		c-1.8,3.4-1.8,7.8-2.4,11.8c-0.3,1.8,1.3,1.9,2.6,1.9c3.3,0,6.6-0.1,9.9,0.1c1.5,0.1,4.3-1.1,3.7,2.2c-0.4,2.4,0.7,6-3.9,5.7
		c-2.9-0.2-5.9,0.2-8.8-0.1c-3.9-0.4-5.5,0.9-6,4.9c-1.3,10.5-1.5,10.8,9.8,10.3c5.1-0.2,5.6,1.6,4.8,5.8c-0.4,2.2-1.4,2.7-3.3,2.7
		c-6.3-0.1-12.5-0.2-18.8-0.1c-2.4,0-2.7-0.8-2.4-2.9c2.7-16.3,5.3-32.6,7.9-49c0.3-2.2,1.5-2.6,3.4-2.6
		C150.7,514.8,157.6,514.8,164.9,514.8z"/>
	<path id="XMLID_21_" class="st2" d="M1206.9,569.1c-12.5,0-12.3,0-10.2-12.1c2.2-12.5,4.1-25,6-37.5c0.5-3.4,1.5-5.2,5.4-4.9
		c5.3,0.4,10.6,0,16,0.1c1.5,0,4.5-1,3.5,2.2c-0.7,2.1,1.1,6.1-3.7,5.9c-3.5-0.2-7,0.2-10.5-0.1c-3.1-0.2-4,1-4.4,4
		c-1.6,10.9-1.7,10.8,9.4,11c1.8,0,5.3-2,5.5,1.9c0.2,3.4-0.3,7.3-5.7,6c-0.3-0.1-0.7,0-1.1,0c-12.1,0-12.5,0.5-13.3,12.5
		c-0.1,2.2,0.4,3,2.7,2.8c2.9-0.2,5.9-0.3,8.8,0.1c1.6,0.2,5.2-2,4.7,2.2c-0.3,2.6,0.5,6.7-4.7,5.9
		C1212.5,568.8,1209.7,569.1,1206.9,569.1z"/>
	<path id="XMLID_20_" class="st2" d="M406.5,514.8c-0.6,8.1-0.6,8.1-8,8.1c-0.4,0-0.7,0-1.1,0c-2.8,0.4-7-1.5-8.3,0.8
		c-1.9,3.5-2,8.1-2.7,12.2c-0.3,2,1.2,1.8,2.5,1.8c3.5,0,7-0.1,10.5,0c1.5,0,4.1-0.6,3.2,2.1c-0.7,2,1.1,5.7-3.1,5.8
		c-3.5,0.1-7,0.2-10.5,0c-3-0.2-4.5,0.5-5,4c-1.7,11.5-1.9,11.3,9.8,11.5c1.5,0,5-2.3,4.8,1.9c-0.2,2.9,0.5,6.8-5,6.3
		c-5.5-0.5-11-0.2-16.5-0.1c-3,0.1-3.6-0.7-3.1-3.8c2.8-15.7,5.3-31.5,7.9-47.2c0.3-1.9,0.4-3.5,3.1-3.4
		C392.2,514.9,399.4,514.8,406.5,514.8z"/>
	<path id="XMLID_19_" class="st2" d="M1533.3,569.2c-12.1,0-12.1,0-10.3-11.6c2.1-13,4.4-26,6.4-39.1c0.4-2.7,1.3-3.8,4.1-3.7
		c5.7,0.2,11.4,0,17.1,0.1c1.3,0,4.1-1.2,3.5,1.6c-0.5,2.3,1.2,6.6-3.8,6.5c-3.3,0-6.6,0.1-9.9-0.2c-3.2-0.3-4.4,0.8-5,4.1
		c-2,10.8-2.1,10.9,9.3,10.8c4-0.1,7,0.1,5.3,5.4c-0.6,1.9-1.4,2.8-3.4,2.6c-2-0.1-4.1,0.2-6.1-0.1c-5.8-0.8-8.9,0.5-9.3,7.4
		c-0.5,8-1.3,7.9,6.8,7.9c1.3,0,2.7-0.4,3.8,0.1c1.6,0.6,5.1-2.1,4.6,2.3c-0.3,2.9,0.3,6.6-4.8,5.8
		C1538.8,568.8,1536,569.2,1533.3,569.2z"/>
	<path id="XMLID_18_" class="st2" d="M138.5,515.2c-5.5,12.1-11,24.1-16.4,36.1c-2.1,4.5-4.4,8.9-6.1,13.5c-1.3,3.5-3.3,4.6-7,4.5
		c-3.2-0.1-4-1.2-4.3-4c-2-15.7-4.3-31.3-6.4-46.9c-0.2-1.4-1.6-3.6,1.4-3.5c2.2,0.1,5.3-1.4,5.8,2.8c0.7,6.6,1.7,13.1,2.6,19.7
		c0.9,6.4,1.7,12.7,2.6,19.1c2.1,0.4,2-1.4,2.4-2.4c5-11,9.8-22.1,14.8-33.1C131.1,513.9,129.1,514.4,138.5,515.2z"/>
	<path id="XMLID_17_" class="st2" d="M1513,514.8c3.1,0,6.3-0.1,9.4,0.1c1.4,0.1,4.3-1.3,3.6,2.2c-0.5,2.3,0.5,6.4-4,5.6
		c-6-1-7.2,2.2-7.9,7.1c-1.7,11.8-3.9,23.5-5.5,35.3c-0.6,4.4-3.1,4.3-6.2,4c-3.9-0.4-1.4-3.3-1.2-4.6c1.8-12,3.8-23.9,6-35.8
		c0.8-4.2,0.6-6.7-4.7-6.1c-1.4,0.2-4.6,1.7-4.1-1.9c0.3-2.4-0.8-6.4,4.3-5.9C1506,515.1,1509.5,514.8,1513,514.8z"/>
	<path id="XMLID_16_" class="st2" d="M237.7,569.1c-3.2,0.7-3.9-0.8-3.4-3.6c2.7-15.9,5.4-31.9,7.9-47.8c0.7-4.2,3.6-2.9,5.9-2.8
		c3.5,0.1,1.5,2.8,1.3,4.1c-2.4,15.6-5.1,31.2-7.5,46.8C241.5,568.6,240.4,569.7,237.7,569.1z"/>
	<path id="XMLID_15_" class="st2" d="M895.6,569.1c-2.6,0.2-4.2,0.3-3.6-3.4c2.9-16.1,5.5-32.2,7.9-48.3c0.7-4.5,3.8-2.5,5.9-2.6
		c3-0.2,1.6,2.3,1.4,3.6c-2.4,15.4-5,30.7-7.5,46.1C899.3,566.9,899.6,570.3,895.6,569.1z"/>
	<path id="XMLID_14_" class="st2" d="M83.7,569.1c-3.3,0.6-3.8-0.4-3.3-3.5c2.8-15.9,5.5-31.8,7.8-47.7c0.6-4.4,3.3-3,5.5-3.1
		c4-0.1,1.9,2.8,1.7,4.3c-2.4,15.2-4.9,30.4-7.4,45.5C87.6,567.2,87.5,570.1,83.7,569.1z"/>
	<path id="XMLID_85_" class="st0" d="M518.6,569.3c-12.1,0-12,0-10-11.5c2.2-12.9,4.3-25.7,6.2-38.6c0.5-3.2,1.6-4.9,5.2-4.5
		c2.7,0.3,5.5,0,8.3,0.1c11.6,0.2,18.3,5.8,20.7,17.3c3.4,16.3-4.6,32-18.4,36.2C526.4,569.6,522.2,569.1,518.6,569.3z M520.9,561.3
		c15.6,0.8,21.6-11.2,21.2-23.3c-0.4-11.2-5.7-15.8-16.8-15.5c-2.8,0.1-3.8,1-4.2,3.7c-1.5,9.8-2.8,19.6-4.9,29.3
		C515.1,560.7,516.4,562.3,520.9,561.3z"/>
	<path id="XMLID_82_" class="st0" d="M614.3,542.5c-1.5,9-2.9,16.2-3.8,23.5c-0.5,4-3,3.3-5.5,3.3c-4,0.1-2.1-2.7-1.9-4.2
		c2.5-15.6,5.2-31.2,7.6-46.8c0.4-2.8,1.5-3.7,4.2-3.5c3.1,0.2,6.2-0.1,9.4,0.1c8.8,0.3,14.7,4.9,16,12.3c1.7,9.8-2.4,18-10.9,21
		c-3.2,1.1-3.5,2.1-2,4.9c2.6,5,4.8,10.3,7.4,15.8c-4.8,1.3-8.3,1.2-10.4-4.5C621.8,557.3,618.2,550.7,614.3,542.5z M620.3,541.6
		c9.7,0,14.8-6.4,11.6-13.9c-2.2-5.1-6.7-4.7-11.1-4.8c-4.6-0.2-3.4,3.4-4,5.7c-0.6,2.3-0.7,4.7-1.3,7
		C614,540.5,615.9,542.3,620.3,541.6z"/>
	<path id="XMLID_79_" class="st0" d="M643.8,569.2c8.2-17.6,16.3-34.5,24-51.5c1.7-3.8,4.6-2.8,7.4-3c3.2-0.2,2.6,2.5,3,4.3
		c2.7,15.6,5.4,31.1,8.1,46.7c0.3,1.5,1.5,3.7-1.5,3.5c-2-0.2-5.1,1.9-5.8-2c-0.7-3.4-1.3-6.9-1.8-10.3c-0.3-2.3-1.3-3.3-3.6-3
		c-0.4,0.1-0.7,0.1-1.1,0c-9.8-1.8-16.6,1.1-18.9,11.6C652.4,570.7,648.2,569.2,643.8,569.2z M662.6,545.7c3.3,0,5.8-0.2,8.3,0
		c3.4,0.3,4.6-0.7,3.8-4.2c-1-5.1-1.6-10.3-2.6-16.9C668.7,532.2,665.8,538.6,662.6,545.7z"/>
	<path id="XMLID_7_" class="st0" d="M572.8,569.3c-12.3,0-12.3-0.1-10.4-12.2c2.1-12.7,4.3-25.4,6.2-38.1c0.5-3.5,1.9-4.5,5.3-4.3
		c5.3,0.3,10.7,0,16,0.1c1.4,0,4.1-0.9,3.4,1.8c-0.5,2.2,1.2,6.1-3.4,6.3c-2.8,0.1-5.6,0.4-8.3,0c-5.3-0.9-6.9,1.6-7.5,6.4
		c-1,8.5-1.3,8.4,7.1,8.4c1.3,0,2.6-0.2,3.9,0c1.8,0.3,5-1.5,4.4,2.7c-0.4,2.9-0.2,6.2-4.9,5.4c-2-0.3-4.1,0.2-6.1-0.1
		c-5.5-0.9-7.6,1.3-8.2,6.9c-0.8,8.5-1.3,8.4,7.2,8.4c1.5,0,3,0.2,4.4-0.1c3.3-0.5,3.9,1.2,4.1,3.9c0.2,3.1-1.2,4.4-4.1,4.5
		C579,569.3,575.9,569.3,572.8,569.3z"/>
	<path id="XMLID_6_" class="st0" d="M476.5,569.3c-3.3-0.5-8.9,1.9-10.8-1c-1.7-2.5,0.6-7.6,1.3-11.6c2-12.4,4.1-24.7,5.8-37.1
		c0.5-3.9,1.9-5.3,6-5c5.1,0.4,10.3,0,15.5,0.2c1.4,0,4.5-1.2,3.5,2.2c-0.6,2.2,1.1,6.2-3.6,6c-3.5-0.1-7,0.1-10.5-0.1
		c-2.6-0.1-3.9,0.5-4.4,3.4c-2.1,11.2-2.2,11.4,9.4,11.2c4.6-0.1,6.6,0.7,5.1,5.7c-0.5,1.8-1.1,2.5-2.9,2.4c-1.1-0.1-2.2,0-3.3,0
		c-11.4,0-11.3,0.1-13.2,11.1c-0.5,3.1-0.1,4.4,3.3,4.2c2.9-0.2,5.9-0.2,8.8,0c1.4,0.1,4.5-1.3,3.7,2c-0.5,2.3,1,6.5-4,6.2
		C483.1,569.1,480.2,569.3,476.5,569.3z"/>
	<path id="XMLID_5_" class="st0" d="M443.5,545.7c-8.3,0-8.3,0-9.7,8.2c-0.7,4-1.7,7.9-2,11.9c-0.3,4.1-2.8,3.5-5.4,3.5
		c-3.7,0-2.4-2.5-2.1-4.2c2.5-15.4,5.1-30.8,7.5-46.2c0.5-3.2,1.7-4.3,5-4.2c5.5,0.3,11,0,16.5,0.1c1.3,0,4.1-1.1,3.4,1.8
		c-0.6,2.2,1.1,6.2-3.4,6.3c-3.7,0.1-7.4,0.2-11,0c-2.8-0.2-3.7,0.9-4.2,3.6c-2.1,11.1-2.2,11.3,9.1,11.1c4-0.1,6.9-0.1,5.4,5.3
		c-0.5,2-1.1,2.9-3.1,2.8C447.6,545.6,445.6,545.7,443.5,545.7z"/>
	<path id="XMLID_4_" class="st0" d="M709.2,569.2c-11.6,0-11.5,0-9.6-11.7c2.1-12.7,4.1-25.4,6.3-38.1c0.4-2-0.2-4.9,3.7-4.8
		c3.3,0.1,4.8,0.2,4,4.4c-2.4,12.6-4.1,25.4-6.4,38.1c-0.5,3.1,0.1,4.1,3.1,3.8c2-0.2,4.1-0.4,6,0.1c1.8,0.5,5.3-2.1,5.2,2.2
		c-0.1,3.4-0.4,7.2-5.8,6.1C713.7,568.9,711.4,569.2,709.2,569.2z"/>
	<path id="XMLID_3_" class="st2" d="M520.9,561.3c-4.5,1-5.8-0.6-4.7-5.8c2.1-9.7,3.4-19.5,4.9-29.3c0.4-2.7,1.4-3.6,4.2-3.7
		c11.1-0.3,16.4,4.3,16.8,15.5C542.5,550.1,536.5,562.2,520.9,561.3z"/>
	<path id="XMLID_2_" class="st2" d="M620.3,541.6c-4.4,0.8-6.3-1.1-4.9-6.1c0.6-2.3,0.7-4.7,1.3-7c0.6-2.3-0.5-5.8,4-5.7
		c4.5,0.1,9-0.2,11.1,4.8C635.1,535.1,630,541.5,620.3,541.6z"/>
	<path id="XMLID_1_" class="st2" d="M662.6,545.7c3.2-7.1,6.1-13.5,9.5-21.1c1,6.6,1.5,11.8,2.6,16.9c0.7,3.6-0.5,4.6-3.8,4.2
		C668.4,545.5,665.9,545.7,662.6,545.7z"/>
</g>
</svg>
